<svg xmlns="http://www.w3.org/2000/svg" version="1.1" xmlns:xlink="http://www.w3.org/1999/xlink" xmlns:svgjs="http://svgjs.dev/svgjs" width="2000" height="1500" viewBox="0 0 2000 1500"><rect width="2000" height="1500" fill="#1f2d5a"></rect><g transform="matrix(0.75,0,0,0.75,249.090909090909,538.7388479899423)"><svg xmlns="http://www.w3.org/2000/svg" version="1.1" xmlns:xlink="http://www.w3.org/1999/xlink" xmlns:svgjs="http://svgjs.com/svgjs" viewBox="0 0 396 112" data-background-color="#1f2d5a" preserveAspectRatio="xMidYMid meet" height="565" width="2000"><defs></defs><g id="tight-bounds" transform="matrix(1,0,0,1,0.2400000000000091,-0.16224418849213862)"><svg viewBox="0 0 395.52 112.32437878514101" height="112.32437878514101" width="395.52"><g><svg viewBox="0 0 598.4219328416109 169.9468341874932" height="112.32437878514101" width="395.52"><g transform="matrix(1,0,0,1,202.90193284161086,50.07459356433483)"><svg viewBox="0 0 395.52 69.79764705882354" height="69.79764705882354" width="395.52"><g><svg viewBox="0 0 395.52 69.79764705882354" height="69.79764705882354" width="395.52"><g><svg viewBox="0 0 395.52 69.79764705882354" height="69.79764705882354" width="395.52"><g transform="matrix(1,0,0,1,0,0)"><svg width="395.52" viewBox="4.15 -33.3 192.09 33.9" height="69.79764705882354" data-palette-color="#fbfbfb"><path d="M24.35 0L4.15 0 4.15-32.7 23.85-32.7 23.85-27.8 9.95-27.8 9.95-19.45 21.7-19.45 21.7-14.55 9.95-14.55 9.95-4.9 24.35-4.9 24.35 0ZM36.6 0L31.05 0 31.05-32.7 37-32.7 47.2-14.3 50.55-7.35 50.75-7.35Q50.55-9.9 50.27-12.83 50-15.75 50-18.5L50-18.5 50-32.7 55.55-32.7 55.55 0 49.6 0 39.4-18.4 36.05-25.35 35.85-25.35Q36.05-22.75 36.32-19.9 36.6-17.05 36.6-14.3L36.6-14.3 36.6 0ZM76.55 0L69.7 0 59.5-32.7 65.65-32.7 70.25-16.25Q71.05-13.45 71.67-10.95 72.3-8.45 73.15-5.6L73.15-5.6 73.35-5.6Q74.2-8.45 74.82-10.95 75.45-13.45 76.2-16.25L76.2-16.25 80.75-32.7 86.7-32.7 76.55 0ZM96.44 0L90.64 0 90.64-32.7 100.94-32.7Q103.64-32.7 105.97-32.2 108.29-31.7 109.99-30.5 111.69-29.3 112.64-27.38 113.59-25.45 113.59-22.6L113.59-22.6Q113.59-19.9 112.64-17.9 111.69-15.9 110.02-14.58 108.34-13.25 106.07-12.63 103.79-12 101.14-12L101.14-12 96.44-12 96.44 0ZM96.44-28.05L96.44-16.65 100.69-16.65Q107.89-16.65 107.89-22.6L107.89-22.6Q107.89-25.7 106.02-26.88 104.14-28.05 100.49-28.05L100.49-28.05 96.44-28.05ZM123.94-17.4L123.94-17.4 122.79-13.4 131.14-13.4 129.99-17.4Q129.19-20 128.47-22.75 127.74-25.5 127.04-28.2L127.04-28.2 126.84-28.2Q126.14-25.45 125.44-22.73 124.74-20 123.94-17.4ZM118.89 0L112.99 0 123.64-32.7 130.44-32.7 141.09 0 134.99 0 132.44-8.85 121.44-8.85 118.89 0ZM158.34 0.6L158.34 0.6Q155.04 0.6 152.21-0.5 149.39-1.6 147.31-3.75 145.24-5.9 144.09-9.05 142.94-12.2 142.94-16.25L142.94-16.25Q142.94-20.25 144.14-23.43 145.34-26.6 147.41-28.8 149.49-31 152.31-32.15 155.14-33.3 158.39-33.3L158.39-33.3Q161.89-33.3 164.31-32.02 166.74-30.75 168.29-29.15L168.29-29.15 165.19-25.4Q163.94-26.6 162.41-27.43 160.89-28.25 158.59-28.25L158.59-28.25Q156.39-28.25 154.61-27.43 152.84-26.6 151.56-25.08 150.29-23.55 149.59-21.35 148.89-19.15 148.89-16.4L148.89-16.4Q148.89-10.8 151.41-7.63 153.94-4.45 158.89-4.45L158.89-4.45Q160.29-4.45 161.54-4.83 162.79-5.2 163.59-5.9L163.59-5.9 163.59-12.95 157.39-12.95 157.39-17.7 168.79-17.7 168.79-3.3Q167.14-1.65 164.41-0.53 161.69 0.6 158.34 0.6ZM196.24 0L176.04 0 176.04-32.7 195.74-32.7 195.74-27.8 181.84-27.8 181.84-19.45 193.59-19.45 193.59-14.55 181.84-14.55 181.84-4.9 196.24-4.9 196.24 0Z" opacity="1" transform="matrix(1,0,0,1,0,0)" fill="#fbfbfb" class="undefined-text-0" data-fill-palette-color="primary" id="text-0"></path></svg></g></svg></g></svg></g></svg></g><g><svg viewBox="0 0 169.9468341874932 169.9468341874932" height="169.9468341874932" width="169.9468341874932"><g><svg xmlns="http://www.w3.org/2000/svg" version="1.1" xmlns:xlink="http://www.w3.org/1999/xlink" xmlns:svgjs="http://svgjs.com/svgjs"></svg></g><g id="icon-0"><svg viewBox="0 0 169.9468341874932 169.9468341874932" height="169.9468341874932" width="169.9468341874932"><g><path d="M0 84.973c0-46.93 38.044-84.973 84.973-84.973 46.93 0 84.973 38.044 84.974 84.973 0 46.93-38.044 84.973-84.974 84.974-46.93 0-84.973-38.044-84.973-84.974zM84.973 163.652c43.453 0 78.679-35.226 78.679-78.679 0-43.453-35.226-78.679-78.679-78.679-43.453 0-78.679 35.226-78.679 78.679 0 43.453 35.226 78.679 78.679 78.679z" data-fill-palette-color="accent" fill="#2f76db" stroke="transparent"></path></g><g transform="matrix(1,0,0,1,35.799457020760414,39.62585730011345)"><svg viewBox="0 0 98.34792014597238 90.6951195872663" height="90.6951195872663" width="98.34792014597238"><g><svg xmlns="http://www.w3.org/2000/svg" xmlns:xlink="http://www.w3.org/1999/xlink" version="1.1" x="0" y="0" viewBox="0.03409091278301597 3.9170000000000003 99.85290908721697 92.083" enable-background="new 0 0 100 100" xml:space="preserve" height="90.6951195872663" width="98.34792014597238" class="icon-symbol-0" fill="#2f76db" data-fill-palette-color="accent" id="symbol-0"><g fill="#2f76db" data-fill-palette-color="accent"><path fill="#2f76db" d="M6.498 62H18v27.23c0 3.557 2.414 6.77 6.005 6.77h51.016C78.611 96 82 92.787 82 89.23V62h11.365c0.008 0 0.015 0 0.02 0 3.591 0 6.502-2.801 6.502-6.359 0-1.873-0.808-3.479-2.096-4.656L54.647 5.95c-1.229-1.281-2.933-2.033-4.716-2.033-1.782 0-3.062 0.672-4.29 1.953L32 20.515V11.37c0-3.396-3.337-6.15-7-6.15s-7 2.753-7 6.15v22.957L1.841 51.089c-1.789 1.866-2.313 4.735-1.286 7.101C1.58 60.555 3.899 62 6.498 62zM49.932 21.473L78.227 51h-3.206C71.431 51 68 52.179 68 55.735V83H32V55.735C32 52.179 27.596 51 24.005 51h-2.367L49.932 21.473z" data-fill-palette-color="accent"></path></g></svg></g></svg></g></svg></g></svg></g></svg></g></svg><rect width="395.52" height="112.32437878514101" fill="transparent" stroke="transparent"></rect></g></svg></g></svg>